<mxfile host="app.diagrams.net" modified="2023-03-23T07:23:29.197Z" agent="5.0 (Windows NT 10.0; Win64; x64) AppleWebKit/537.36 (KHTML, like Gecko) Chrome/111.0.0.0 Safari/537.36" etag="7J5OhDv7XnaMKpTolyVu" version="20.8.23" type="github">
  <diagram id="zKn1btXUY4NRSkQlBcXw" name="Page-1">
    <mxGraphModel dx="700" dy="391" grid="1" gridSize="10" guides="1" tooltips="1" connect="1" arrows="1" fold="1" page="1" pageScale="1" pageWidth="850" pageHeight="1100" math="0" shadow="0">
      <root>
        <mxCell id="0" />
        <mxCell id="1" parent="0" />
        <mxCell id="_QcRZ-Q_KwPTVzpmB7S8-24" style="edgeStyle=orthogonalEdgeStyle;rounded=0;orthogonalLoop=1;jettySize=auto;html=1;exitX=0;exitY=0.25;exitDx=0;exitDy=0;entryX=1;entryY=0.25;entryDx=0;entryDy=0;" parent="1" source="_QcRZ-Q_KwPTVzpmB7S8-1" edge="1" target="_QcRZ-Q_KwPTVzpmB7S8-2">
          <mxGeometry relative="1" as="geometry">
            <mxPoint x="410" y="150" as="targetPoint" />
          </mxGeometry>
        </mxCell>
        <mxCell id="BPkE-810KY3CZgBcOggI-5" style="edgeStyle=orthogonalEdgeStyle;rounded=0;orthogonalLoop=1;jettySize=auto;html=1;exitX=1;exitY=0.5;exitDx=0;exitDy=0;entryX=0;entryY=0.5;entryDx=0;entryDy=0;" edge="1" parent="1" source="_QcRZ-Q_KwPTVzpmB7S8-1" target="MOSE06dxE0W8jNm6weCO-3">
          <mxGeometry relative="1" as="geometry">
            <Array as="points" />
          </mxGeometry>
        </mxCell>
        <mxCell id="_QcRZ-Q_KwPTVzpmB7S8-1" value="Node-RED [Process]&lt;br&gt;&lt;br&gt;[Raspberry Pi]" style="rounded=0;whiteSpace=wrap;html=1;" parent="1" vertex="1">
          <mxGeometry x="210" y="70" width="120" height="60" as="geometry" />
        </mxCell>
        <mxCell id="BPkE-810KY3CZgBcOggI-3" style="edgeStyle=orthogonalEdgeStyle;rounded=0;orthogonalLoop=1;jettySize=auto;html=1;exitX=1;exitY=0.5;exitDx=0;exitDy=0;" edge="1" parent="1" source="_QcRZ-Q_KwPTVzpmB7S8-2">
          <mxGeometry relative="1" as="geometry">
            <mxPoint x="210" y="110" as="targetPoint" />
            <Array as="points">
              <mxPoint x="150" y="110" />
              <mxPoint x="210" y="110" />
            </Array>
          </mxGeometry>
        </mxCell>
        <mxCell id="_QcRZ-Q_KwPTVzpmB7S8-2" value="Website / Aplikasi" style="rounded=1;whiteSpace=wrap;html=1;" parent="1" vertex="1">
          <mxGeometry x="30" y="70" width="120" height="60" as="geometry" />
        </mxCell>
        <mxCell id="_QcRZ-Q_KwPTVzpmB7S8-8" value="Motor AC" style="rounded=0;whiteSpace=wrap;html=1;" parent="1" vertex="1">
          <mxGeometry x="580" y="65" width="120" height="60" as="geometry" />
        </mxCell>
        <mxCell id="CErJr3eCF4j3M--S5c0C-1" value="&lt;div style=&quot;text-align: justify&quot;&gt;Status/Kondisi motor stepper dapat dilihat pada tampilan dashboard control yang berada pada raspberry pi.&lt;/div&gt;&lt;div style=&quot;text-align: justify&quot;&gt;Pemberian Input/Perintah dilakukan pada aplikasi yang kemudian diproses oleh raspberry pi dan diteruskan menuju arduino&lt;br&gt;1. Arduino memberikan perintah kepada push button untuk mengubah arah putaran motor menuju arah kiri atau kanan&lt;br&gt;2. Arduino memberikan perintah kepada Servo motor untuk menggerakan potentiometer yang kemudian akan merubah nilai/value kecepatan pada motor&lt;br&gt;&lt;br&gt;Semua perintah dari push button maupun potentiometer akan di proses oleh driver motor sehingga stepper motor berputar sesuai dengan kondisi yang&lt;/div&gt;&lt;div style=&quot;text-align: justify&quot;&gt;telah diberikan.&amp;nbsp;&lt;/div&gt;" style="text;html=1;align=left;verticalAlign=middle;resizable=0;points=[];autosize=1;fillColor=#fff2cc;strokeColor=#d6b656;" parent="1" vertex="1">
          <mxGeometry x="15" y="855" width="830" height="100" as="geometry" />
        </mxCell>
        <mxCell id="BPkE-810KY3CZgBcOggI-6" style="edgeStyle=orthogonalEdgeStyle;rounded=0;orthogonalLoop=1;jettySize=auto;html=1;exitX=1;exitY=0.5;exitDx=0;exitDy=0;entryX=0;entryY=0.5;entryDx=0;entryDy=0;" edge="1" parent="1" source="MOSE06dxE0W8jNm6weCO-1" target="_QcRZ-Q_KwPTVzpmB7S8-8">
          <mxGeometry relative="1" as="geometry" />
        </mxCell>
        <mxCell id="MOSE06dxE0W8jNm6weCO-1" value="" style="triangle;whiteSpace=wrap;html=1;rotation=0;" parent="1" vertex="1">
          <mxGeometry x="410" y="50" width="80" height="90" as="geometry" />
        </mxCell>
        <mxCell id="MOSE06dxE0W8jNm6weCO-3" value="Selector&lt;br&gt;&lt;span data-darkreader-inline-bgcolor=&quot;&quot; style=&quot;background-color: rgb(19, 16, 23); --darkreader-inline-bgcolor:#0f0d12;&quot;&gt;Switch&lt;/span&gt;" style="text;html=1;strokeColor=none;fillColor=none;align=center;verticalAlign=middle;whiteSpace=wrap;rounded=0;" parent="1" vertex="1">
          <mxGeometry x="410" y="85" width="60" height="30" as="geometry" />
        </mxCell>
      </root>
    </mxGraphModel>
  </diagram>
</mxfile>
